<svg width="162" height="44" viewBox="0 0 162 44" fill="none" xmlns="http://www.w3.org/2000/svg">
<path d="M36.2138 10.6681C37.8396 11.2016 39.2443 11.7742 40.4148 12.633C38.633 5.54123 32.8452 1.19511 25.4837 0.882812C25.3277 0.882812 25.1716 0.882812 25.0155 0.882812C29.1905 2.47032 33.2874 6.10078 36.2138 10.6681Z" fill="url(#paint0_linear_2917_57185)"/>
<path d="M18.9156 2.24897C21.1657 1.37714 23.2856 0.89568 25.0285 0.882667C23.7539 0.40121 22.4663 0.101925 21.2177 0.0238508C18.2523 -0.14531 15.8071 0.596396 13.7651 1.89764C15.4689 1.52027 17.2248 1.59835 18.9156 2.24897Z" fill="url(#paint1_linear_2917_57185)"/>
<path d="M19.2406 42.652C13.2057 41.0385 8.04225 38.1888 4.58261 34.1289C6.62458 39.4119 11.1638 43.1985 18.5122 43.8882C21.7377 44.1875 24.7552 43.8491 27.4995 42.8862C24.8202 43.4328 22.0239 43.3937 19.2406 42.652Z" fill="url(#paint2_linear_2917_57185)"/>
<path d="M21.4646 3.73341C20.6452 3.06978 19.7868 2.58832 18.9154 2.25C15.0396 3.74642 10.7736 6.38792 7.43097 9.70611C5.46706 13.8701 4.5306 18.3333 3.98434 20.8447C3.51611 23.0177 3.29501 25.1648 3.32102 27.2078C7.57404 34.1043 18.07 39.9208 24.287 40.2462C29.8796 40.5455 35.8364 35.6398 38.8409 27.8974C39.5302 26.1147 40.0374 24.3971 40.4016 22.7445C40.1415 18.5155 38.5548 14.2995 36.2266 10.656C32.2728 9.36775 27.1353 8.26173 21.4646 3.73341ZM21.9849 34.3125C15.2737 34.3125 9.68106 28.8733 9.68106 22.0809C9.68106 15.2884 15.2737 9.66704 21.9849 9.66704C28.6961 9.66704 34.3017 15.2754 34.3017 22.0809C34.3017 28.8733 28.6961 34.3125 21.9849 34.3125Z" fill="url(#paint3_linear_2917_57185)"/>
<path d="M3.97138 20.8437C4.51764 18.3323 5.45409 13.856 7.418 9.70508C4.29653 12.789 1.96843 16.4585 1.4872 20.3362C1.20106 22.6394 1.92941 24.9816 3.29506 27.2067C3.26905 25.1638 3.50315 23.0168 3.97138 20.8437Z" fill="url(#paint4_linear_2917_57185)"/>
<path d="M18.9153 2.24911C19.7868 2.58744 20.6451 3.06889 21.4646 3.73252C27.1352 8.26086 32.2727 9.36689 36.2135 10.6681C33.3002 6.11379 29.2032 2.47032 25.0152 0.882812C23.2854 0.895826 21.1654 1.37728 18.9153 2.24911Z" fill="url(#paint5_linear_2917_57185)"/>
<path d="M40.3756 22.7428C41.182 18.9692 41.143 15.56 40.4016 12.6192C39.244 11.7603 37.8264 11.1878 36.2006 10.6543C38.5417 14.2978 40.1155 18.5138 40.3756 22.7428Z" fill="url(#paint6_linear_2917_57185)"/>
<path d="M39.3219 30.2523C40.2324 27.832 40.5445 25.2815 40.3885 22.7441C40.0373 24.3967 39.53 26.1143 38.8277 27.897C35.8103 35.6524 29.8534 40.5451 24.2738 40.2458C18.0569 39.9204 7.5609 34.1039 3.30786 27.2074C3.34688 29.6797 3.77608 32.0219 4.58245 34.1299C8.04209 38.1898 13.2056 41.0265 19.2404 42.6531C22.0237 43.3948 24.8201 43.4338 27.4993 42.8873C32.6628 41.0525 36.8118 36.9276 39.3219 30.2523Z" fill="url(#paint7_linear_2917_57185)"/>
<path d="M7.41803 9.70512C10.7736 6.38693 15.0266 3.75844 18.9025 2.24901C17.2116 1.59839 15.4688 1.52031 13.739 1.88466C10.9037 3.70639 8.8747 6.62118 7.41803 9.70512Z" fill="url(#paint8_linear_2917_57185)"/>
<path d="M43.9395 21.0772C43.6924 16.4838 42.4308 14.1156 40.4018 12.6191C41.1431 15.5599 41.1821 18.9561 40.3758 22.7428C40.5318 25.2802 40.2197 27.8306 39.3092 30.2509C36.7991 36.9263 32.6501 41.0512 27.4867 42.8859C36.8121 40.9731 44.5117 31.9685 43.9395 21.0772Z" fill="url(#paint9_linear_2917_57185)"/>
<path d="M1.50019 20.337C1.98141 16.4463 4.30952 12.7898 7.43101 9.70585C8.88768 6.62196 10.9167 3.70716 13.765 1.89844C6.36447 3.51197 -0.515773 13.5315 0.0304881 22.6922C0.29061 27.2075 1.94239 31.0202 4.59568 34.1301C3.77626 32.0221 3.36006 29.6799 3.32105 27.2075C1.92939 24.9824 1.21405 22.6402 1.50019 20.337Z" fill="url(#paint10_linear_2917_57185)"/>
<path d="M60.9227 24.4157C60.9227 24.4157 59.9745 25.4584 58.4574 25.4584C56.5926 25.4584 55.2019 24.004 55.2019 22.0118C55.2019 20.0196 56.561 18.5653 58.4574 18.5653C59.7533 18.5653 60.9227 19.5455 60.9227 19.5455L62.2818 17.6483L62.2186 17.5534C62.1554 17.4901 61.0175 16.1621 58.4574 16.1621C55.1387 16.1621 52.7682 18.629 52.7682 22.0118C52.7682 25.3959 55.1387 27.8304 58.4258 27.8304C60.9543 27.8304 62.1554 26.5023 62.187 26.4386L62.2502 26.3442L60.9227 24.4157Z" fill="#151D29"/>
<path d="M66.8013 16.416H64.4308V27.6096H66.8013V16.416Z" fill="#151D29"/>
<path d="M76.5049 23.6874C77.7691 23.0233 78.4644 21.8213 78.4644 20.2727C78.4644 17.8374 76.8209 16.3828 74.0712 16.3828H69.2354V27.5774H71.6059V24.2571H74.0712L76.3785 27.5774H79.2863L76.5049 23.6874ZM71.6059 18.6284H73.9764C75.2722 18.6284 75.9991 19.2606 75.9991 20.3989C75.9991 21.8532 74.9246 22.1375 74.0396 22.1375H71.6059V18.6284Z" fill="#151D29"/>
<path d="M88.1361 24.4161L88.0096 24.5423C88.0096 24.5423 87.1562 25.4281 85.6708 25.4281C83.806 25.4281 82.4152 23.9725 82.4152 21.9803C82.4152 19.9881 83.7743 18.5338 85.6708 18.5338C86.9666 18.5338 88.0096 19.4196 88.0096 19.4196L88.1361 19.514L89.4951 17.6171L89.4319 17.5222C89.3686 17.459 88.2309 16.1309 85.6708 16.1309C82.3837 16.1309 80.0131 18.5975 80.0131 21.9497C80.0131 25.3325 82.3837 27.7671 85.6708 27.7671C88.1993 27.7671 89.4003 26.4389 89.4319 26.3764L89.4951 26.2809L88.1361 24.4161Z" fill="#151D29"/>
<path d="M94.0467 25.365V16.416H91.6762V27.5789H99.5778V25.365H94.0467Z" fill="#151D29"/>
<path d="M110.134 18.6299V16.416H101.79V27.5789H110.134V25.365H104.161V23.0566H109.06V20.9701H104.161V18.6299H110.134Z" fill="#151D29"/>
<path d="M117.024 20.6837C115.381 20.2095 114.97 19.9571 114.97 19.4192C114.97 18.629 115.823 18.4709 116.518 18.4709C118.13 18.4709 119.205 19.3237 119.237 19.3555L119.363 19.4511L120.627 17.4269L120.532 17.3321C120.469 17.2689 119.331 16.1621 116.518 16.1621C113.895 16.1621 112.315 17.4269 112.315 19.5455C112.315 21.2216 113.389 22.2336 115.981 22.992C117.814 23.5299 118.13 23.8778 118.13 24.4464C118.13 25.3322 117.245 25.5221 116.518 25.5221C114.906 25.5221 113.547 24.5101 113.547 24.5101L113.421 24.4157L112.125 26.3124L112.22 26.4079C112.283 26.4704 113.705 27.8623 116.582 27.8623C119.237 27.8623 120.817 26.5341 120.817 24.2883C120.817 22.486 119.711 21.4433 117.024 20.6837Z" fill="#151D29"/>
<path d="M124.357 27.7666C125.213 27.7666 125.906 27.0731 125.906 26.2179C125.906 25.3614 125.213 24.668 124.357 24.668C123.502 24.668 122.809 25.3614 122.809 26.2179C122.809 27.0731 123.502 27.7666 124.357 27.7666Z" fill="#151D29"/>
<path d="M130.584 25.365V16.416H128.181V27.5789H136.115V25.365H130.584Z" fill="#151D29"/>
<path d="M140.666 16.416H138.296V27.6096H140.666V16.416Z" fill="#151D29"/>
<path d="M151.444 18.6299V16.416H143.1V27.5789H145.47V23.0566H150.59V20.9701H145.47V18.6299H151.444Z" fill="#151D29"/>
<path d="M162 18.6299V16.416H153.656V27.5789H162V25.365H156.026V23.0566H160.957V20.9701H156.026V18.6299H162Z" fill="#151D29"/>
<defs>
<linearGradient id="paint0_linear_2917_57185" x1="13.1471" y1="6.75163" x2="40.0831" y2="6.75163" gradientUnits="userSpaceOnUse">
<stop stop-color="#6400FF"/>
<stop offset="1" stop-color="#AA0AFF"/>
</linearGradient>
<linearGradient id="paint1_linear_2917_57185" x1="6.80192" y1="1.12436" x2="42.5532" y2="1.12436" gradientUnits="userSpaceOnUse">
<stop stop-color="#8700DC"/>
<stop offset="0.9954" stop-color="#00FFFF"/>
</linearGradient>
<linearGradient id="paint2_linear_2917_57185" x1="1.77295" y1="39.0615" x2="24.608" y2="39.0615" gradientUnits="userSpaceOnUse">
<stop stop-color="#6400FF"/>
<stop offset="1" stop-color="#AA0AFF"/>
</linearGradient>
<linearGradient id="paint3_linear_2917_57185" x1="4.3434" y1="21.2589" x2="42.6854" y2="21.2589" gradientUnits="userSpaceOnUse">
<stop offset="0.0589776" stop-color="#8700DC"/>
<stop offset="0.1387" stop-color="#820ADD"/>
<stop offset="0.2737" stop-color="#7425E1"/>
<stop offset="0.4477" stop-color="#5D50E7"/>
<stop offset="0.6538" stop-color="#3D8CEF"/>
<stop offset="0.8844" stop-color="#15D8FA"/>
<stop offset="0.9954" stop-color="#00FFFF"/>
</linearGradient>
<linearGradient id="paint4_linear_2917_57185" x1="-6.99466" y1="18.4568" x2="18.1131" y2="18.4568" gradientUnits="userSpaceOnUse">
<stop offset="0.0949974" stop-color="#8700DC"/>
<stop offset="0.3671" stop-color="#5C51E7"/>
<stop offset="0.8031" stop-color="#1ACDF8"/>
<stop offset="0.9954" stop-color="#00FFFF"/>
</linearGradient>
<linearGradient id="paint5_linear_2917_57185" x1="6.21036" y1="5.77099" x2="76.5102" y2="5.77099" gradientUnits="userSpaceOnUse">
<stop stop-color="#8700DC"/>
<stop offset="0.9954" stop-color="#00FFFF"/>
</linearGradient>
<linearGradient id="paint6_linear_2917_57185" x1="36.8273" y1="16.7037" x2="62.4836" y2="16.7037" gradientUnits="userSpaceOnUse">
<stop stop-color="#41AF55"/>
<stop offset="0.0329517" stop-color="#3EB25C"/>
<stop offset="0.3765" stop-color="#24D3A1"/>
<stop offset="0.6634" stop-color="#10EBD4"/>
<stop offset="0.8795" stop-color="#04F9F3"/>
<stop offset="0.9998" stop-color="#00FFFF"/>
</linearGradient>
<linearGradient id="paint7_linear_2917_57185" x1="-34.1179" y1="33.0006" x2="67.4058" y2="33.0006" gradientUnits="userSpaceOnUse">
<stop stop-color="#8700DC"/>
<stop offset="0.9954" stop-color="#00FFFF"/>
</linearGradient>
<linearGradient id="paint8_linear_2917_57185" x1="2.64409" y1="5.68531" x2="29.3208" y2="5.68531" gradientUnits="userSpaceOnUse">
<stop stop-color="#8700DC"/>
<stop offset="0.9954" stop-color="#00FFFF"/>
</linearGradient>
<linearGradient id="paint9_linear_2917_57185" x1="56.2472" y1="-7.85479" x2="21.8559" y2="60.1135" gradientUnits="userSpaceOnUse">
<stop stop-color="#41AF55"/>
<stop offset="0.0329517" stop-color="#3EB25C"/>
<stop offset="0.3765" stop-color="#24D3A1"/>
<stop offset="0.6634" stop-color="#10EBD4"/>
<stop offset="0.8795" stop-color="#04F9F3"/>
<stop offset="0.9998" stop-color="#00FFFF"/>
</linearGradient>
<linearGradient id="paint10_linear_2917_57185" x1="16.0858" y1="-12.0488" x2="-6.46489" y2="50.3893" gradientUnits="userSpaceOnUse">
<stop stop-color="#41AF55"/>
<stop offset="0.0329517" stop-color="#3EB25C"/>
<stop offset="0.3765" stop-color="#24D3A1"/>
<stop offset="0.6634" stop-color="#10EBD4"/>
<stop offset="0.8795" stop-color="#04F9F3"/>
<stop offset="0.9998" stop-color="#00FFFF"/>
</linearGradient>
</defs>
</svg>
